<?xml version="1.0" encoding="UTF-8" standalone="no"?>
<svg
   xmlns:dc="http://purl.org/dc/elements/1.1/"
   xmlns:cc="http://creativecommons.org/ns#"
   xmlns:rdf="http://www.w3.org/1999/02/22-rdf-syntax-ns#"
   xmlns:svg="http://www.w3.org/2000/svg"
   xmlns="http://www.w3.org/2000/svg"
   xmlns:sodipodi="http://sodipodi.sourceforge.net/DTD/sodipodi-0.dtd"
   xmlns:inkscape="http://www.inkscape.org/namespaces/inkscape"
   viewBox="0 0 165.62 254.21"
   version="1.1"
   id="svg879"
   sodipodi:docname="local-white-box.svg"
   inkscape:version="1.0.2-2 (e86c870879, 2021-01-15)">
  <metadata
     id="metadata883">
    <rdf:RDF>
      <cc:Work
         rdf:about="">
        <dc:format>image/svg+xml</dc:format>
        <dc:type
           rdf:resource="http://purl.org/dc/dcmitype/StillImage" />
      </cc:Work>
    </rdf:RDF>
  </metadata>
  <sodipodi:namedview
     pagecolor="#ffffff"
     bordercolor="#666666"
     borderopacity="1"
     objecttolerance="10"
     gridtolerance="10"
     guidetolerance="10"
     inkscape:pageopacity="0"
     inkscape:pageshadow="2"
     inkscape:window-width="3440"
     inkscape:window-height="1369"
     id="namedview881"
     showgrid="false"
     inkscape:zoom="3.9652256"
     inkscape:cx="82.81"
     inkscape:cy="127.105"
     inkscape:window-x="-8"
     inkscape:window-y="-8"
     inkscape:window-maximized="1"
     inkscape:current-layer="svg879"
     inkscape:document-rotation="0" />
  <defs
     id="defs861">
    <style
       id="style859">.cls-1{fill:#fff;opacity:0.75;}</style>
  </defs>
  <title
     id="title863">local-white-box-logo_1</title>
  <g
     id="Layer_2"
     data-name="Layer 2"
     style="fill:#ff6f0c;fill-opacity:1">
    <g
       id="Layer_2-2"
       data-name="Layer 2"
       style="fill:#ff6f0c;fill-opacity:1">
      <polygon
         class="cls-1"
         points="71.72 108.75 68.87 117.84 74.58 117.84 71.73 108.75 71.72 108.75"
         id="polygon865"
         style="fill:#ff6f0c;fill-opacity:1" />
      <path
         class="cls-1"
         d="M111.74,119.93a11.34,11.34,0,0,0,2.14,1.82q1.31.89,3.11,1.9a15.47,15.47,0,0,0,4.21-3.57,6.72,6.72,0,0,0,1.48-4.23,7.47,7.47,0,0,0-.37-2.44,4.5,4.5,0,0,0-1.18-1.84,5.25,5.25,0,0,0-2-1.14,9,9,0,0,0-2.79-.39,6.49,6.49,0,0,0-4.68,1.49,5.5,5.5,0,0,0-1.54,4.13,6.46,6.46,0,0,0,.39,2.29A6.36,6.36,0,0,0,111.74,119.93Z"
         id="path867"
         style="fill:#ff6f0c;fill-opacity:1" />
      <path
         class="cls-1"
         d="M38.8,109.92a4.15,4.15,0,0,0-1.59-1.52,5.2,5.2,0,0,0-2.49-.54,4.84,4.84,0,0,0-2.52.6,4.76,4.76,0,0,0-1.63,1.61,6.9,6.9,0,0,0-.88,2.36,15.17,15.17,0,0,0-.26,2.85,18,18,0,0,0,.25,3.15,7,7,0,0,0,.84,2.39,4,4,0,0,0,1.59,1.51,5.38,5.38,0,0,0,2.5.52,4.9,4.9,0,0,0,2.52-.59,4.64,4.64,0,0,0,1.63-1.62,7.1,7.1,0,0,0,.88-2.39,15.69,15.69,0,0,0,.26-2.9,17.33,17.33,0,0,0-.25-3.07A6.87,6.87,0,0,0,38.8,109.92Z"
         id="path869"
         style="fill:#ff6f0c;fill-opacity:1" />
      <path
         class="cls-1"
         d="M121.88,136.07a13.63,13.63,0,0,0-2.49-2,39.17,39.17,0,0,0-3.48-2,29.26,29.26,0,0,0-3,1.94,11.73,11.73,0,0,0-2.17,2,7.86,7.86,0,0,0-1.29,2.25,7.37,7.37,0,0,0-.43,2.54,5.69,5.69,0,0,0,1.89,4.62A8.58,8.58,0,0,0,116.5,147q3.67,0,5.49-1.63a5.74,5.74,0,0,0,1.82-4.5,6.66,6.66,0,0,0-1.93-4.85Z"
         id="path871"
         style="fill:#ff6f0c;fill-opacity:1" />
      <path
         class="cls-1"
         d="M0,0V254.21H165.62V0ZM13.18,105.26a.48.48,0,0,1,.1-.3.71.71,0,0,1,.33-.21,3.07,3.07,0,0,1,.63-.13,8.21,8.21,0,0,1,1,0,8.16,8.16,0,0,1,1,0,3.07,3.07,0,0,1,.62.13.72.72,0,0,1,.33.21.48.48,0,0,1,.1.3v17.21h6.33a.43.43,0,0,1,.27.09.66.66,0,0,1,.19.3,2.36,2.36,0,0,1,.12.55,9.06,9.06,0,0,1,0,1.67,2.68,2.68,0,0,1-.12.56.72.72,0,0,1-.19.32.41.41,0,0,1-.27.1H14.39a1.23,1.23,0,0,1-.86-.32,1.37,1.37,0,0,1-.35-1Zm14.42,40.43a11.5,11.5,0,0,1-1.38,3.61,6.6,6.6,0,0,1-2.32,2.31,6.42,6.42,0,0,1-3.27.81,6.38,6.38,0,0,1-3.21-.77,6.12,6.12,0,0,1-2.21-2.2A10.76,10.76,0,0,1,13.92,146a24,24,0,0,1-.41-4.65,22,22,0,0,1,.45-4.66,11.08,11.08,0,0,1,1.38-3.57,6.72,6.72,0,0,1,2.32-2.29A6.42,6.42,0,0,1,21,130a6.32,6.32,0,0,1,3.17.76,6.18,6.18,0,0,1,2.21,2.18,10.66,10.66,0,0,1,1.3,3.45,22.61,22.61,0,0,1,.42,4.58A22.37,22.37,0,0,1,27.59,145.69ZM44,151.14a1.55,1.55,0,0,1-.07.51,1,1,0,0,1-.18.33.61.61,0,0,1-.25.18.74.74,0,0,1-.25.05h-.32a1.28,1.28,0,0,1-.47-.08,1.18,1.18,0,0,1-.42-.3,2.84,2.84,0,0,1-.4-.57q-.2-.36-.45-.91L35.26,136.7q-.44-1-.89-2.05t-.85-2.05h0q0,1.23,0,2.53V151.8a.45.45,0,0,1,0,.19.3.3,0,0,1-.13.13.91.91,0,0,1-.24.08,2.16,2.16,0,0,1-.76,0,.92.92,0,0,1-.25-.08A.29.29,0,0,1,32,152a.44.44,0,0,1,0-.19V131.34a1.12,1.12,0,0,1,.25-.84.72.72,0,0,1,.48-.23h.65a1.71,1.71,0,0,1,.52.07,1,1,0,0,1,.38.23,1.89,1.89,0,0,1,.33.46q.16.29.36.75l4.53,10.46q.43,1,.81,1.88l.75,1.77.72,1.71q.36.84.71,1.71h0q0-1.42,0-3V130.68a.44.44,0,0,1,0-.19.34.34,0,0,1,.13-.14.63.63,0,0,1,.24-.08,2.38,2.38,0,0,1,.38,0l.36,0a.64.64,0,0,1,.25.08.4.4,0,0,1,.14.14.39.39,0,0,1,0,.19Zm-.43-31.27a9.78,9.78,0,0,1-1.85,3.56,8,8,0,0,1-3,2.23,10.66,10.66,0,0,1-4.19.77,11.71,11.71,0,0,1-4.1-.65,7.08,7.08,0,0,1-2.92-2,8.69,8.69,0,0,1-1.75-3.41,18.12,18.12,0,0,1-.58-4.89,16.24,16.24,0,0,1,.62-4.67,9.72,9.72,0,0,1,1.85-3.53,8.1,8.1,0,0,1,3-2.23,10.61,10.61,0,0,1,4.21-.78,11.65,11.65,0,0,1,4,.64,7.07,7.07,0,0,1,2.92,2,8.81,8.81,0,0,1,1.77,3.38,17.24,17.24,0,0,1,.6,4.82A16.75,16.75,0,0,1,43.57,119.87Zm5.51,3.83a9.2,9.2,0,0,1-1.79-3.36,16,16,0,0,1-.62-4.69,15.71,15.71,0,0,1,.68-4.84,10.26,10.26,0,0,1,1.91-3.55,8,8,0,0,1,2.95-2.18,9.43,9.43,0,0,1,3.79-.74,8.64,8.64,0,0,1,1.62.15,9.47,9.47,0,0,1,1.44.39,7,7,0,0,1,1.19.55,3.61,3.61,0,0,1,.74.54,1.86,1.86,0,0,1,.29.37,1.43,1.43,0,0,1,.12.38,4.38,4.38,0,0,1,.07.54c0,.21,0,.47,0,.78s0,.61,0,.84a2.29,2.29,0,0,1-.11.56.78.78,0,0,1-.19.31.36.36,0,0,1-.25.1,1,1,0,0,1-.59-.29,9.67,9.67,0,0,0-.93-.64,7.39,7.39,0,0,0-1.35-.65,5.44,5.44,0,0,0-1.87-.29,4.34,4.34,0,0,0-2.14.52,4.67,4.67,0,0,0-1.6,1.49,7.19,7.19,0,0,0-1,2.34,14.43,14.43,0,0,0,0,6.36,6.45,6.45,0,0,0,1,2.27,4.25,4.25,0,0,0,1.63,1.33,5.12,5.12,0,0,0,2.15.44,5.82,5.82,0,0,0,1.88-.27,7.65,7.65,0,0,0,1.36-.6q.57-.33.93-.6A1.13,1.13,0,0,1,61,121a.42.42,0,0,1,.25.07.5.5,0,0,1,.16.26,2.78,2.78,0,0,1,.09.55q0,.36,0,.95,0,.41,0,.7a3.66,3.66,0,0,1-.07.5,1.49,1.49,0,0,1-.12.36,1.76,1.76,0,0,1-.25.34,3.18,3.18,0,0,1-.66.49,7.54,7.54,0,0,1-1.2.57,9.88,9.88,0,0,1-1.62.45,10,10,0,0,1-2,.18,9.81,9.81,0,0,1-3.73-.68A7.36,7.36,0,0,1,49.07,123.7Zm16,7.91a1,1,0,0,1-.08.28.45.45,0,0,1-.13.17.28.28,0,0,1-.17.06h-5V151.8a.44.44,0,0,1,0,.19.29.29,0,0,1-.13.13.91.91,0,0,1-.25.08,2.12,2.12,0,0,1-.75,0,.91.91,0,0,1-.25-.08.29.29,0,0,1-.13-.13.44.44,0,0,1,0-.19V132.12h-5a.27.27,0,0,1-.18-.06.48.48,0,0,1-.12-.17,1,1,0,0,1-.08-.28,2.53,2.53,0,0,1,0-.39,2.83,2.83,0,0,1,0-.41,1.13,1.13,0,0,1,.08-.3.48.48,0,0,1,.12-.18.27.27,0,0,1,.18-.06H64.7a.27.27,0,0,1,.17.06.46.46,0,0,1,.13.18,1.19,1.19,0,0,1,.08.3,3,3,0,0,1,0,.41A2.65,2.65,0,0,1,65.08,131.61ZM79.34,151.8a.45.45,0,0,1,0,.19.29.29,0,0,1-.13.13.91.91,0,0,1-.25.08,1.81,1.81,0,0,1-.38,0,1.79,1.79,0,0,1-.38,0,.93.93,0,0,1-.24-.08.29.29,0,0,1-.13-.13.44.44,0,0,1,0-.19V141.61H69.36V151.8a.45.45,0,0,1,0,.19.3.3,0,0,1-.13.13.91.91,0,0,1-.24.08,2.16,2.16,0,0,1-.76,0,.92.92,0,0,1-.25-.08.29.29,0,0,1-.13-.13.44.44,0,0,1,0-.19V130.62a.44.44,0,0,1,0-.19.29.29,0,0,1,.13-.13.94.94,0,0,1,.25-.09,2.16,2.16,0,0,1,.76,0,.94.94,0,0,1,.24.09.3.3,0,0,1,.13.13.45.45,0,0,1,0,.19v9.16h8.39v-9.16a.44.44,0,0,1,0-.19.29.29,0,0,1,.13-.13,1,1,0,0,1,.24-.09,1.84,1.84,0,0,1,.38,0,1.87,1.87,0,0,1,.38,0,.94.94,0,0,1,.25.09.29.29,0,0,1,.13.13.45.45,0,0,1,0,.19Zm1.74-25.9a1,1,0,0,1-.61.22q-.44,0-1.2,0t-1.24,0a2.9,2.9,0,0,1-.68-.1.61.61,0,0,1-.33-.21,1.18,1.18,0,0,1-.16-.35l-1.35-4.3H68l-1.27,4.18a1.38,1.38,0,0,1-.16.39.67.67,0,0,1-.33.25,2.26,2.26,0,0,1-.64.12q-.41,0-1.08,0a9.76,9.76,0,0,1-1.12,0,.83.83,0,0,1-.56-.24.67.67,0,0,1-.11-.54,5.69,5.69,0,0,1,.23-.93l6.21-19a1.72,1.72,0,0,1,.22-.45.77.77,0,0,1,.4-.26,3,3,0,0,1,.75-.12q.48,0,1.27,0t1.46,0a3.72,3.72,0,0,1,.85.12.8.8,0,0,1,.44.27,1.67,1.67,0,0,1,.23.5l6.22,19a6,6,0,0,1,.23.94A.59.59,0,0,1,81.08,125.9Zm12.15,25.71a1,1,0,0,1-.08.29.49.49,0,0,1-.14.18.27.27,0,0,1-.17.06H85a.73.73,0,0,1-.48-.23,1.12,1.12,0,0,1-.25-.84V131.34a1.12,1.12,0,0,1,.25-.84.72.72,0,0,1,.48-.23h7.75a.27.27,0,0,1,.17.06.44.44,0,0,1,.13.18,1.19,1.19,0,0,1,.08.3,2.83,2.83,0,0,1,0,.41,2.53,2.53,0,0,1,0,.39,1,1,0,0,1-.08.28.44.44,0,0,1-.13.17.27.27,0,0,1-.17.06h-6.9v7.69h5.95a.29.29,0,0,1,.18.06.45.45,0,0,1,.13.17,1,1,0,0,1,.08.29,3,3,0,0,1,0,.41,2.47,2.47,0,0,1,0,.38.9.9,0,0,1-.08.26.39.39,0,0,1-.13.15.33.33,0,0,1-.18.05H85.83v8.72h7a.28.28,0,0,1,.17.06.51.51,0,0,1,.14.17.92.92,0,0,1,.08.29,3,3,0,0,1,0,.41A2.64,2.64,0,0,1,93.23,151.61Zm1.58-26.54a2.68,2.68,0,0,1-.12.56.72.72,0,0,1-.19.32.41.41,0,0,1-.27.1H85a1.23,1.23,0,0,1-.86-.32,1.37,1.37,0,0,1-.35-1V105.26a.48.48,0,0,1,.1-.3.71.71,0,0,1,.33-.21,3.07,3.07,0,0,1,.63-.13,9.9,9.9,0,0,1,2,0,3.07,3.07,0,0,1,.62.13.72.72,0,0,1,.33.21.48.48,0,0,1,.1.3v17.21h6.33a.43.43,0,0,1,.27.09.66.66,0,0,1,.19.3,2.36,2.36,0,0,1,.12.55,9.06,9.06,0,0,1,0,1.67Zm37.6,21.24a11.79,11.79,0,0,1-3.37,4.52,15.13,15.13,0,0,1-5.53,2.79,31,31,0,0,1-14.84.1,14.54,14.54,0,0,1-5.21-2.5,10.31,10.31,0,0,1-3.15-4.07,13.9,13.9,0,0,1-1-5.57,12.78,12.78,0,0,1,.62-4,11.93,11.93,0,0,1,1.84-3.49,16.41,16.41,0,0,1,3-3,30.34,30.34,0,0,1,4.18-2.7,24.41,24.41,0,0,1-3.45-2.35,14.91,14.91,0,0,1-2.62-2.75,11.28,11.28,0,0,1-1.65-3.28,12.85,12.85,0,0,1-.56-3.88,14.1,14.1,0,0,1,1-5.49,11.61,11.61,0,0,1,3.07-4.27,14,14,0,0,1,5.11-2.77,23.67,23.67,0,0,1,7.12-1,23.31,23.31,0,0,1,6.88.89,12.64,12.64,0,0,1,4.7,2.52,10,10,0,0,1,2.72,3.9,13.79,13.79,0,0,1,.88,5,11.07,11.07,0,0,1-.58,3.55,13.56,13.56,0,0,1-1.63,3.28,15.92,15.92,0,0,1-2.59,2.93,20.74,20.74,0,0,1-3.48,2.5,30,30,0,0,1,4.08,2.64,16.74,16.74,0,0,1,3,3,12.66,12.66,0,0,1,1.89,3.43,11.63,11.63,0,0,1,.66,4A15.39,15.39,0,0,1,132.41,146.31Zm14,1.85a5.44,5.44,0,0,1-1.35,2,5.92,5.92,0,0,1-2.1,1.24,8.14,8.14,0,0,1-2.7.43,8.78,8.78,0,0,1-1.75-.17,9.33,9.33,0,0,1-1.5-.43,6.58,6.58,0,0,1-1.13-.55,3.74,3.74,0,0,1-.68-.52,1.32,1.32,0,0,1-.32-.56,3.32,3.32,0,0,1-.1-.9,3,3,0,0,1,0-.52,2.21,2.21,0,0,1,.1-.38.54.54,0,0,1,.16-.24.34.34,0,0,1,.22-.08,1.25,1.25,0,0,1,.63.32,11.09,11.09,0,0,0,1,.69,8.8,8.8,0,0,0,1.48.69,6.29,6.29,0,0,0,3.64.09,3.73,3.73,0,0,0,1.3-.68,3,3,0,0,0,.86-1.16,4.16,4.16,0,0,0,.31-1.66,3,3,0,0,0-.39-1.6,4,4,0,0,0-1-1.14,7.69,7.69,0,0,0-1.46-.86l-1.68-.77q-.86-.39-1.68-.87a6.45,6.45,0,0,1-1.46-1.15,5.28,5.28,0,0,1-1-1.62,5.9,5.9,0,0,1-.39-2.28,6.33,6.33,0,0,1,.35-2.08,5.26,5.26,0,0,1,1.09-1.84,5.41,5.41,0,0,1,1.89-1.31,6.89,6.89,0,0,1,2.73-.5,7.19,7.19,0,0,1,1.33.12,7.3,7.3,0,0,1,1.2.33,5.71,5.71,0,0,1,.94.44,4.37,4.37,0,0,1,.6.42,1.29,1.29,0,0,1,.28.3.91.91,0,0,1,.1.26,3,3,0,0,1,0,.33c0,.13,0,.28,0,.46a3.51,3.51,0,0,1,0,.48,1.72,1.72,0,0,1-.09.37.59.59,0,0,1-.15.24.3.3,0,0,1-.21.08.94.94,0,0,1-.47-.25,7,7,0,0,0-.83-.54,7.42,7.42,0,0,0-1.22-.54,5,5,0,0,0-1.64-.25,4.87,4.87,0,0,0-1.63.25,3,3,0,0,0-1.15.7,2.9,2.9,0,0,0-.68,1.06,3.79,3.79,0,0,0-.23,1.33,3.25,3.25,0,0,0,.39,1.67,4,4,0,0,0,1,1.17,7.87,7.87,0,0,0,1.48.88l1.68.77q.86.38,1.68.84a6.62,6.62,0,0,1,1.48,1.12,5,5,0,0,1,1,1.57,5.51,5.51,0,0,1,.39,2.2A6.89,6.89,0,0,1,146.44,148.16Z"
         id="path873"
         style="fill:#ff6f0c;fill-opacity:1" />
      <path
         class="cls-1"
         d="M25.17,134.54a5.14,5.14,0,0,0-1.71-2,4.61,4.61,0,0,0-2.64-.72,4.46,4.46,0,0,0-2.63.75,5.61,5.61,0,0,0-1.74,2,9.9,9.9,0,0,0-1,3,20.89,20.89,0,0,0-.29,3.56,24.22,24.22,0,0,0,.27,3.71,10,10,0,0,0,.9,3,5.08,5.08,0,0,0,1.7,2,4.66,4.66,0,0,0,2.66.72,4.47,4.47,0,0,0,2.66-.77,5.63,5.63,0,0,0,1.74-2.06,10.26,10.26,0,0,0,.95-3,21.46,21.46,0,0,0,.29-3.57,22.55,22.55,0,0,0-.28-3.64A10.08,10.08,0,0,0,25.17,134.54Z"
         id="path875"
         style="fill:#ff6f0c;fill-opacity:1" />
    </g>
  </g>
  <path
     style="fill:#ffffff;stroke-width:0.252192"
     d="m 112.8209,154.30247 c -8.25277,-0.9799 -12.25156,-4.1971 -13.25496,-10.66418 -0.532561,-3.43244 0.396844,-6.95033 2.58584,-9.78767 1.04567,-1.35539 4.40725,-4.07777 5.93449,-4.80606 0.45411,-0.21655 0.82565,-0.48013 0.82565,-0.58573 0,-0.1056 -0.65255,-0.62011 -1.45011,-1.14336 -3.2091,-2.10537 -5.46363,-4.98908 -6.27673,-8.02844 -0.45244,-1.69125 -0.43175,-4.97667 0.0428,-6.79871 1.57281,-6.03844 6.58488,-9.31636 14.74539,-9.64356 4.22278,-0.16932 7.07796,0.29878 9.81385,1.60896 3.3868,1.62188 5.17165,3.99088 5.96806,7.92129 0.36174,1.78529 0.38388,2.4121 0.14046,3.97781 -0.6328,4.07034 -3.52732,7.9995 -7.74898,10.51886 -0.39612,0.2364 -0.21404,0.42607 1.42357,1.4829 3.73301,2.40909 5.81053,4.66964 7.0844,7.70852 0.50333,1.20072 0.57732,1.79489 0.56469,4.5342 -0.0155,3.36918 -0.38052,4.89692 -1.71314,7.17086 -0.75201,1.2832 -2.93186,3.36568 -4.43644,4.23828 -3.1404,1.82128 -9.54946,2.85403 -14.24888,2.29603 z m 7.79615,-7.98841 c 2.46155,-1.12694 3.65969,-3.61663 3.17465,-6.59682 -0.44703,-2.74668 -2.27643,-4.77429 -6.15899,-6.82631 l -1.80319,-0.95302 -1.50431,0.95034 c -3.34531,2.11338 -5.12918,4.55651 -5.34903,7.32584 -0.27031,3.40493 1.15948,5.45726 4.6013,6.60472 1.61444,0.53823 5.34578,0.27069 7.03957,-0.50475 z m -2.2961,-23.39072 c 1.41858,-0.93963 3.22819,-2.90583 3.81763,-4.14798 0.93622,-1.97293 0.74022,-5.12389 -0.42008,-6.75338 -0.29127,-0.40905 -1.16404,-1.03534 -1.93948,-1.39175 -1.93531,-0.8895 -5.1661,-0.93655 -6.75862,-0.0984 -1.50557,0.79238 -2.29924,1.74164 -2.75441,3.2944 -0.64511,2.20071 -0.12854,4.41318 1.45155,6.217 0.83296,0.9509 4.62018,3.6291 5.15825,3.64775 0.14961,0.005 0.79992,-0.34025 1.44516,-0.76763 z"
     id="path847" />
  <path
     style="fill:#ffffff;stroke-width:0.252192"
     d="m 112.69481,154.3045 c -4.10516,-0.61655 -6.25102,-1.29174 -8.28646,-2.6073 -2.74838,-1.77637 -4.291,-4.37573 -4.857589,-8.18522 -0.79534,-5.34749 1.678259,-10.04374 7.178709,-13.62911 1.22335,-0.79742 2.12975,-1.52968 2.01422,-1.62724 -0.11553,-0.0975 -1.03229,-0.77553 -2.03725,-1.5066 -4.10796,-2.98844 -5.85496,-6.19249 -5.86169,-10.75056 -0.009,-6.3478 3.40866,-10.62705 10.00926,-12.53124 1.69931,-0.49023 2.55015,-0.5668 6.25416,-0.5628 3.34887,0.004 4.64608,0.10428 5.92653,0.45993 3.47972,0.9665 6.36544,3.09129 7.6553,5.63671 0.34969,0.69009 0.82904,2.20836 1.06522,3.37394 0.55291,2.72872 0.24241,5.04283 -1.03218,7.69281 -0.98829,2.05475 -3.41654,4.73903 -5.61014,6.20169 l -1.32639,0.88441 1.83078,1.21068 c 2.73401,1.80797 4.12452,3.04643 5.35235,4.76707 1.85834,2.60423 2.25149,3.85568 2.26617,7.21343 0.0188,4.29056 -0.82682,6.73589 -3.19517,9.24007 -2.39433,2.53165 -5.17924,3.82513 -9.7041,4.50716 -2.25812,0.34037 -6.08137,0.44652 -7.64173,0.21217 z m 5.98279,-7.4307 c 2.05641,-0.35811 3.74107,-1.46388 4.53187,-2.97462 0.45764,-0.87427 0.5818,-1.5166 0.5818,-3.00973 0,-2.21799 -0.5198,-3.53003 -1.97067,-4.9742 -0.99828,-0.99368 -3.66966,-2.82722 -5.14219,-3.52941 l -0.90378,-0.43099 -1.80924,1.21387 c -0.99508,0.66763 -2.30612,1.76652 -2.91341,2.44198 -2.48166,2.7602 -2.85209,6.67693 -0.85989,9.09204 1.71219,2.07566 4.67715,2.83426 8.48551,2.17106 z m -0.018,-24.26353 c 1.68169,-1.23798 2.64057,-2.29764 3.43704,-3.79825 0.82946,-1.56274 0.79389,-4.65508 -0.0713,-6.20023 -0.9389,-1.67676 -2.87082,-2.60416 -5.48659,-2.63377 -2.49878,-0.0283 -4.03148,0.53631 -5.2176,1.92203 -2.22514,2.59957 -1.59243,6.63202 1.42908,9.10792 1.10624,0.90648 3.9269,2.69243 4.25232,2.69243 0.0969,0 0.84261,-0.49056 1.65707,-1.09013 z"
     id="path849" />
  <path
     style="fill:#ffffff;stroke-width:0.252192"
     d="m 137.46405,151.21697 c -1.75014,-0.60453 -2.57631,-1.391 -2.57631,-2.4525 0,-0.4531 0.10615,-0.88942 0.23587,-0.9696 0.12973,-0.0802 0.76808,0.19174 1.41855,0.60425 2.55483,1.62023 5.67388,1.55814 7.1672,-0.14265 0.66301,-0.75513 0.7617,-1.05992 0.7617,-2.35256 0,-1.99732 -0.63309,-2.7172 -3.77717,-4.29498 -4.24071,-2.12808 -5.16634,-3.3217 -5.00797,-6.4579 0.0781,-1.54573 0.21186,-2.00508 0.84748,-2.90946 1.10419,-1.57107 2.6911,-2.3095 4.93304,-2.29547 1.37046,0.009 2.05544,0.15106 2.96118,0.61595 1.08927,0.55908 1.18416,0.68476 1.25585,1.66322 0.0427,0.58215 -0.032,1.05845 -0.16587,1.05845 -0.13388,0 -0.80589,-0.29183 -1.49336,-0.6485 -2.01044,-1.04305 -4.7532,-0.8088 -5.83826,0.49862 -0.52952,0.63803 -0.77907,2.20942 -0.51078,3.2162 0.32738,1.22848 1.52394,2.23259 4.09789,3.43878 2.47085,1.15788 4.06243,2.49401 4.48077,3.76158 0.4859,1.47229 0.3747,3.85402 -0.2358,5.0507 -1.34609,2.63857 -5.13442,3.79706 -8.55401,2.61587 z"
     id="path851" />
  <path
     style="fill:#ffffff;stroke-width:0.252192"
     d="m 84.225048,125.62557 c -0.205208,-0.24726 -0.267341,-3.22061 -0.220024,-10.52903 l 0.06594,-10.18448 h 1.765348 1.765347 l 0.06627,8.88979 0.06627,8.88978 h 3.374391 c 2.844357,0 3.398435,0.0627 3.527468,0.39892 0.19386,0.50519 0.191137,1.577 -0.0059,2.31215 -0.151193,0.56418 -0.180674,0.56743 -5.135622,0.56743 -3.905372,0 -5.045423,-0.0745 -5.269518,-0.34456 z"
     id="path853" />
  <path
     style="fill:#ffffff;stroke-width:0.252192"
     d="m 62.899871,125.7391 c -0.121858,-0.19717 5.338001,-17.48248 6.426246,-20.34478 0.234055,-0.61561 0.281629,-0.62541 2.692893,-0.55447 l 2.45463,0.0722 3.350097,10.2138 c 1.842554,5.61759 3.296222,10.35565 3.230374,10.52903 -0.07984,0.21022 -0.700182,0.31524 -1.862107,0.31524 -1.088151,0 -1.839275,-0.11836 -2.000432,-0.31524 -0.141927,-0.17338 -0.559894,-1.30825 -0.928815,-2.52192 l -0.670765,-2.20669 H 71.81896 c -4.327579,0 -3.788271,-0.33854 -4.820971,3.02631 l -0.580499,1.89145 -1.6806,0.0741 c -0.937066,0.0413 -1.749803,-0.0379 -1.837019,-0.17901 z m 11.710621,-8.02827 c -0.0018,-0.10403 -0.234081,-0.92681 -0.516203,-1.82839 -0.282122,-0.90159 -0.91414,-2.92559 -1.404485,-4.49777 -0.490345,-1.57219 -0.933761,-2.8163 -0.98537,-2.76469 -0.111372,0.11138 -2.891116,8.8752 -2.891116,9.11496 0,0.0908 1.305096,0.16504 2.900214,0.16504 1.595117,0 2.898749,-0.0851 2.89696,-0.18915 z"
     id="path855" />
  <path
     style="fill:#ffffff;stroke-width:0.252192"
     d="m 52.04252,125.59598 c -3.454785,-1.40271 -5.169946,-4.73728 -5.169946,-10.05126 0,-4.97757 1.746308,-8.44933 5.115327,-10.16958 2.4414,-1.24661 6.728658,-1.03028 8.589421,0.43339 0.597996,0.47039 0.670223,0.69735 0.670223,2.10611 0,0.86841 -0.06338,1.6423 -0.140847,1.71977 -0.07747,0.0775 -0.771899,-0.23916 -1.543184,-0.7036 -4.452251,-2.68101 -8.024765,-0.30727 -8.556943,5.68561 -0.179487,2.0212 0.410429,5.03517 1.215478,6.21006 1.46342,2.13572 4.430601,2.59636 7.203675,1.11833 0.868243,-0.46277 1.661715,-0.75831 1.76327,-0.65675 0.101556,0.10155 0.184647,0.79621 0.184647,1.54368 0,1.66763 -0.430008,2.17225 -2.458641,2.88526 -2.081022,0.73142 -4.895026,0.68187 -6.87248,-0.12102 z"
     id="path857" />
  <path
     style="fill:#ffffff;stroke-width:0.252192"
     d="m 30.8161,125.76906 c -3.665812,-1.30495 -5.432121,-4.5487 -5.452188,-10.01272 -0.02439,-6.64185 2.707752,-10.48955 7.977748,-11.23513 4.134933,-0.58498 7.803446,1.01988 9.404308,4.1141 1.566236,3.02729 1.71104,8.4525 0.324516,12.15832 -0.694885,1.85724 -2.606987,3.92919 -4.326045,4.68769 -1.847413,0.81513 -6.021273,0.96661 -7.928339,0.28774 z m 6.665402,-3.6383 c 1.817336,-1.20266 2.772993,-4.30549 2.47633,-8.04017 -0.364906,-4.59376 -2.099285,-6.48957 -5.698799,-6.2292 -1.877574,0.13581 -3.264444,1.01508 -4.001012,2.53663 -1.139252,2.35338 -1.176073,7.7838 -0.06744,9.94589 1.018372,1.98606 2.216844,2.62323 4.7365,2.51816 1.178232,-0.0491 1.786899,-0.22339 2.55442,-0.73131 z"
     id="path859" />
  <path
     style="fill:#ffffff;stroke-width:0.252192"
     d="m 13.611159,125.62557 c -0.205208,-0.24726 -0.267341,-3.22061 -0.220024,-10.52903 l 0.06594,-10.18448 h 1.765348 1.765347 l 0.06627,8.88979 0.06627,8.88978 h 3.374391 c 2.844357,0 3.398435,0.0627 3.527468,0.39892 0.19386,0.50519 0.191137,1.577 -0.0059,2.31215 -0.151193,0.56418 -0.180674,0.56743 -5.135622,0.56743 -3.905372,0 -5.045423,-0.0745 -5.269518,-0.34456 z"
     id="path861" />
  <path
     style="fill:#ffffff;stroke-width:0.252192"
     d="m 17.996538,151.72432 c -2.158409,-0.99012 -3.430368,-3.03423 -4.030882,-6.47783 -0.452197,-2.59309 -0.480744,-4.41063 -0.111026,-7.06881 0.531678,-3.82262 2.089162,-6.41274 4.501735,-7.48646 2.597678,-1.15611 5.853541,-0.37713 7.512007,1.79726 2.232025,2.92638 2.760821,10.49649 1.052209,15.06317 -0.615376,1.64473 -2.280575,3.56514 -3.61824,4.17276 -1.362432,0.61888 -3.956596,0.61883 -5.305803,-9e-5 z m 4.844986,-1.56953 c 2.454509,-1.1882 3.425319,-3.69699 3.454439,-8.92701 0.02213,-3.97459 -0.275977,-5.55712 -1.372524,-7.2862 -0.904856,-1.42681 -2.284509,-2.17102 -4.024741,-2.17102 -1.643107,0 -2.713215,0.45728 -3.699872,1.58102 -1.355429,1.54374 -1.89945,3.41525 -2.032923,6.99352 -0.138724,3.71903 0.305467,6.31066 1.378526,8.043 1.319984,2.13099 3.994529,2.88135 6.297095,1.76669 z"
     id="path863" />
  <path
     style="fill:#ffffff;stroke-width:0.252192"
     d="m 32.30846,152.03403 c -0.244922,-0.10108 -0.315241,-2.42727 -0.315241,-10.42835 0,-5.66404 0.06888,-10.47776 0.153078,-10.69717 0.10222,-0.26638 0.469717,-0.39891 1.106131,-0.39891 0.836798,0 1.002911,0.10507 1.361789,0.86135 0.452311,0.95317 5.941345,13.62778 7.106941,16.41047 l 0.738048,1.76199 0.06608,-9.51691 0.06608,-9.5169 h 0.627448 0.627449 v 10.5612 c 0,9.22027 -0.04951,10.60229 -0.389935,10.88482 -0.91776,0.76168 -1.561018,-0.32108 -5.32407,-8.96172 -1.988172,-4.56519 -3.813968,-8.81617 -4.057324,-9.44661 -0.436793,-1.13155 -0.444082,-1.02019 -0.568562,8.68591 -0.132623,10.34108 -0.120919,10.24532 -1.197914,9.80083 z"
     id="path865" />
  <path
     style="fill:#ffffff;stroke-width:0.252192"
     d="m 58.398082,152.03874 c -0.09727,-0.0973 -0.176847,-4.63668 -0.176847,-10.08759 v -9.91075 l -2.584973,-0.0719 -2.584972,-0.0719 -0.0798,-0.69353 -0.0798,-0.69353 h 6.086121 6.086122 l -0.0798,0.69353 -0.0798,0.69353 -2.708182,0.0716 -2.708183,0.0716 -0.06593,10.01274 c -0.05799,8.80571 -0.11302,10.02181 -0.456521,10.08792 -0.214823,0.0413 -0.470168,-0.004 -0.567433,-0.10168 z"
     id="path868" />
  <path
     style="fill:#ffffff;stroke-width:0.252192"
     d="m 68.233588,152.03874 c -0.09727,-0.0973 -0.176847,-5.04575 -0.176847,-10.99663 v -10.81978 l 0.567433,0.0806 c 0.562569,0.0799 0.568021,0.12113 0.636046,4.8092 l 0.06861,4.72861 h 4.281707 4.281707 v -4.8092 -4.80919 l 0.567433,0.0806 0.567433,0.0806 v 10.84428 c 0,10.67615 -0.0078,10.84427 -0.504385,10.84427 -0.48599,0 -0.506871,-0.19085 -0.572549,-5.23299 l -0.06817,-5.23299 h -4.277039 -4.277038 l -0.06817,5.2297 c -0.05847,4.4858 -0.123724,5.24038 -0.458751,5.30476 -0.214823,0.0413 -0.470168,-0.005 -0.567433,-0.10179 z"
     id="path870" />
  <path
     style="fill:#ffffff;stroke-width:0.252192"
     d="m 84.56455,151.63047 c -0.06658,-0.17351 -0.09139,-4.96832 -0.05513,-10.65513 l 0.06593,-10.33965 4.241571,-0.0692 4.241571,-0.0692 -0.08039,0.6997 -0.0804,0.69971 -3.593742,0.07 -3.593743,0.07 v 3.8943 3.89429 l 3.089358,0.0708 3.089358,0.0708 0.0798,0.69352 0.0798,0.69353 H 88.87937 85.710213 v 4.53947 4.53946 h 3.656791 3.656791 v 0.75658 0.75658 h -4.169091 c -3.104351,0 -4.200009,-0.0806 -4.290154,-0.31549 z"
     id="path872" />
</svg>
