<?xml version="1.0" encoding="UTF-8" standalone="no"?>
<svg
   xmlns:dc="http://purl.org/dc/elements/1.1/"
   xmlns:cc="http://creativecommons.org/ns#"
   xmlns:rdf="http://www.w3.org/1999/02/22-rdf-syntax-ns#"
   xmlns:svg="http://www.w3.org/2000/svg"
   xmlns="http://www.w3.org/2000/svg"
   xmlns:sodipodi="http://sodipodi.sourceforge.net/DTD/sodipodi-0.dtd"
   xmlns:inkscape="http://www.inkscape.org/namespaces/inkscape"
   viewBox="0 0 166.11 71.89"
   version="1.1"
   id="svg88"
   sodipodi:docname="local.svg"
   inkscape:version="1.0.2-2 (e86c870879, 2021-01-15)">
  <metadata
     id="metadata92">
    <rdf:RDF>
      <cc:Work
         rdf:about="">
        <dc:format>image/svg+xml</dc:format>
        <dc:type
           rdf:resource="http://purl.org/dc/dcmitype/StillImage" />
      </cc:Work>
    </rdf:RDF>
  </metadata>
  <sodipodi:namedview
     pagecolor="#ffffff"
     bordercolor="#666666"
     borderopacity="1"
     objecttolerance="10"
     gridtolerance="10"
     guidetolerance="10"
     inkscape:pageopacity="0"
     inkscape:pageshadow="2"
     inkscape:window-width="2871"
     inkscape:window-height="1008"
     id="namedview90"
     showgrid="false"
     inkscape:zoom="6.2729516"
     inkscape:cx="70.142419"
     inkscape:cy="35.945"
     inkscape:window-x="0"
     inkscape:window-y="0"
     inkscape:window-maximized="0"
     inkscape:current-layer="svg88" />
  <defs
     id="defs70">
    <style
       id="style68">.cls-1{fill:#fff;}</style>
  </defs>
  <title
     id="title72">local</title>
  <g
     id="Layer_2"
     data-name="Layer 2"
     style="fill:#ffab71;fill-opacity:1">
    <g
       id="Layer_2-2"
       data-name="Layer 2"
       style="fill:#ffab71;fill-opacity:1">
      <polygon
         class="cls-1"
         points="75.79 13.66 72.61 23.82 78.99 23.82 75.81 13.66 75.79 13.66"
         id="polygon74"
         style="fill:#ffab71;fill-opacity:1" />
      <path
         class="cls-1"
         d="M120.5,26.15a12.67,12.67,0,0,0,2.38,2q1.47,1,3.47,2.12a17.28,17.28,0,0,0,4.71-4,7.5,7.5,0,0,0,1.65-4.72,8.35,8.35,0,0,0-.42-2.73A5,5,0,0,0,131,16.81a5.86,5.86,0,0,0-2.22-1.28,10.06,10.06,0,0,0-3.12-.43,7.25,7.25,0,0,0-5.23,1.67,6.14,6.14,0,0,0-1.72,4.62,7.22,7.22,0,0,0,.44,2.56A7.11,7.11,0,0,0,120.5,26.15Z"
         id="path76"
         style="fill:#ffab71;fill-opacity:1" />
      <path
         class="cls-1"
         d="M39,15a4.63,4.63,0,0,0-1.78-1.7,5.81,5.81,0,0,0-2.78-.6,5.41,5.41,0,0,0-2.81.67,5.32,5.32,0,0,0-1.82,1.8,7.71,7.71,0,0,0-1,2.63A16.94,16.94,0,0,0,28.56,21a20.15,20.15,0,0,0,.28,3.52,7.85,7.85,0,0,0,.94,2.67,4.42,4.42,0,0,0,1.77,1.69,6,6,0,0,0,2.8.58,5.48,5.48,0,0,0,2.81-.66A5.19,5.19,0,0,0,39,26.94a7.93,7.93,0,0,0,1-2.67A17.53,17.53,0,0,0,40.25,21,19.36,19.36,0,0,0,40,17.6,7.67,7.67,0,0,0,39,15Z"
         id="path78"
         style="fill:#ffab71;fill-opacity:1" />
      <path
         class="cls-1"
         d="M131.82,44.18A15.23,15.23,0,0,0,129,41.92a43.75,43.75,0,0,0-3.89-2.21,32.69,32.69,0,0,0-3.39,2.17,13.11,13.11,0,0,0-2.43,2.28,8.78,8.78,0,0,0-1.44,2.51,8.24,8.24,0,0,0-.48,2.84,6.36,6.36,0,0,0,2.11,5.16q2.11,1.78,6.3,1.78t6.13-1.82a6.41,6.41,0,0,0,2-5,7.44,7.44,0,0,0-2.16-5.42Z"
         id="path80"
         style="fill:#ffab71;fill-opacity:1" />
      <path
         class="cls-1"
         d="M0,0V71.89H166.11V0ZM10.4,9.76a.54.54,0,0,1,.11-.33.79.79,0,0,1,.37-.24,3.43,3.43,0,0,1,.7-.15A9.18,9.18,0,0,1,12.69,9,9.11,9.11,0,0,1,13.81,9a3.43,3.43,0,0,1,.7.15.8.8,0,0,1,.37.24.54.54,0,0,1,.11.33V29h7.07a.48.48,0,0,1,.3.1.74.74,0,0,1,.22.33,2.64,2.64,0,0,1,.13.61,10.12,10.12,0,0,1,0,1.86,3,3,0,0,1-.13.63.81.81,0,0,1-.22.36.45.45,0,0,1-.3.11H11.76a1.37,1.37,0,0,1-1-.36,1.53,1.53,0,0,1-.39-1.17Zm16.1,45.16A12.85,12.85,0,0,1,25,59a7.37,7.37,0,0,1-2.6,2.58,7.17,7.17,0,0,1-3.65.91,7.12,7.12,0,0,1-3.59-.86,6.84,6.84,0,0,1-2.47-2.45,12,12,0,0,1-1.42-3.9A26.77,26.77,0,0,1,10.77,50a24.6,24.6,0,0,1,.51-5.21,12.38,12.38,0,0,1,1.55-4,7.51,7.51,0,0,1,2.6-2.56,7.17,7.17,0,0,1,3.66-.91,7.05,7.05,0,0,1,3.54.85,6.91,6.91,0,0,1,2.47,2.43,11.91,11.91,0,0,1,1.45,3.85A25.25,25.25,0,0,1,27,49.63,25,25,0,0,1,26.51,54.93ZM44.83,61a1.73,1.73,0,0,1-.08.57,1.12,1.12,0,0,1-.2.37.68.68,0,0,1-.28.2.82.82,0,0,1-.28.06h-.36a1.43,1.43,0,0,1-.53-.09,1.31,1.31,0,0,1-.46-.33,3.17,3.17,0,0,1-.45-.63q-.22-.4-.5-1L35.07,44.88q-.49-1.11-1-2.29t-1-2.29h0q0,1.38,0,2.82V61.75a.5.5,0,0,1,0,.21.33.33,0,0,1-.15.15,1,1,0,0,1-.27.09,2.41,2.41,0,0,1-.85,0,1,1,0,0,1-.28-.09A.33.33,0,0,1,31.4,62a.49.49,0,0,1,0-.21V38.9a1.25,1.25,0,0,1,.28-.93.81.81,0,0,1,.54-.25h.73a1.91,1.91,0,0,1,.58.08,1.1,1.1,0,0,1,.42.25,2.11,2.11,0,0,1,.37.51q.18.33.4.84l5.06,11.68q.48,1.09.91,2.1l.83,2,.8,1.92q.4.94.79,1.91h0q0-1.59,0-3.3V38.16a.49.49,0,0,1,0-.21.39.39,0,0,1,.15-.16.71.71,0,0,1,.27-.09,2.66,2.66,0,0,1,.43,0,2.58,2.58,0,0,1,.41,0,.72.72,0,0,1,.28.09.45.45,0,0,1,.15.16.43.43,0,0,1,.05.21Zm-.48-34.92a10.92,10.92,0,0,1-2.07,4,8.92,8.92,0,0,1-3.4,2.49,11.9,11.9,0,0,1-4.68.86,13.08,13.08,0,0,1-4.58-.73,7.91,7.91,0,0,1-3.26-2.22,9.71,9.71,0,0,1-2-3.8,20.25,20.25,0,0,1-.65-5.47A18.14,18.14,0,0,1,24.46,16,10.86,10.86,0,0,1,26.52,12a9,9,0,0,1,3.4-2.49,11.86,11.86,0,0,1,4.7-.87,13,13,0,0,1,4.51.72,7.9,7.9,0,0,1,3.27,2.22,9.84,9.84,0,0,1,2,3.78A19.25,19.25,0,0,1,45,20.77,18.71,18.71,0,0,1,44.35,26.09Zm6.15,4.27a10.27,10.27,0,0,1-2-3.76,17.83,17.83,0,0,1-.7-5.24A17.55,17.55,0,0,1,48.57,16a11.47,11.47,0,0,1,2.14-4A9,9,0,0,1,54,9.54a10.54,10.54,0,0,1,4.23-.83A9.65,9.65,0,0,1,60,8.88a10.58,10.58,0,0,1,1.61.43A7.83,7.83,0,0,1,63,9.93a4,4,0,0,1,.83.6,2.08,2.08,0,0,1,.32.42,1.59,1.59,0,0,1,.14.42,4.9,4.9,0,0,1,.08.61c0,.23,0,.52,0,.87s0,.68,0,.94a2.55,2.55,0,0,1-.12.63.87.87,0,0,1-.21.35.4.4,0,0,1-.28.11,1.17,1.17,0,0,1-.66-.32,10.8,10.8,0,0,0-1-.72,8.25,8.25,0,0,0-1.51-.72,6.08,6.08,0,0,0-2.09-.32,4.85,4.85,0,0,0-2.39.58A5.21,5.21,0,0,0,54.24,15a8,8,0,0,0-1.12,2.61,14.31,14.31,0,0,0-.38,3.45,14.35,14.35,0,0,0,.41,3.65,7.21,7.21,0,0,0,1.16,2.54,4.75,4.75,0,0,0,1.82,1.49,5.72,5.72,0,0,0,2.41.49,6.5,6.5,0,0,0,2.1-.3,8.55,8.55,0,0,0,1.52-.67q.63-.37,1-.67a1.26,1.26,0,0,1,.63-.29.47.47,0,0,1,.28.07.56.56,0,0,1,.17.3,3.11,3.11,0,0,1,.1.62q0,.4,0,1.06,0,.46,0,.79a4.09,4.09,0,0,1-.08.55,1.67,1.67,0,0,1-.14.4,2,2,0,0,1-.28.38,3.56,3.56,0,0,1-.74.54,8.42,8.42,0,0,1-1.34.64,11,11,0,0,1-1.81.51,11.22,11.22,0,0,1-2.2.2,11,11,0,0,1-4.17-.76A8.22,8.22,0,0,1,50.5,30.36ZM68.38,39.2a1.16,1.16,0,0,1-.09.31.51.51,0,0,1-.15.19.31.31,0,0,1-.19.07h-5.6v22a.49.49,0,0,1,0,.21.33.33,0,0,1-.15.15,1,1,0,0,1-.28.09,2.37,2.37,0,0,1-.84,0,1,1,0,0,1-.28-.09.33.33,0,0,1-.15-.15.49.49,0,0,1,0-.21v-22H55a.3.3,0,0,1-.2-.07.53.53,0,0,1-.14-.19,1.1,1.1,0,0,1-.09-.31,2.83,2.83,0,0,1,0-.43,3.16,3.16,0,0,1,0-.46,1.26,1.26,0,0,1,.09-.33.54.54,0,0,1,.14-.2.3.3,0,0,1,.2-.07H68a.31.31,0,0,1,.19.07.51.51,0,0,1,.15.2,1.33,1.33,0,0,1,.09.33,3.31,3.31,0,0,1,0,.46A3,3,0,0,1,68.38,39.2ZM84.3,61.75a.5.5,0,0,1,0,.21.33.33,0,0,1-.15.15,1,1,0,0,1-.28.09,2,2,0,0,1-.42,0,2,2,0,0,1-.43,0,1,1,0,0,1-.27-.09.33.33,0,0,1-.14-.15.49.49,0,0,1,0-.21V50.37H73.16V61.75a.5.5,0,0,1,0,.21.33.33,0,0,1-.15.15,1,1,0,0,1-.27.09,2.41,2.41,0,0,1-.85,0,1,1,0,0,1-.28-.09.33.33,0,0,1-.14-.15.49.49,0,0,1,0-.21V38.08a.49.49,0,0,1,0-.21.33.33,0,0,1,.14-.15,1.05,1.05,0,0,1,.28-.1,2.41,2.41,0,0,1,.85,0,1,1,0,0,1,.27.1.33.33,0,0,1,.15.15.5.5,0,0,1,0,.21V48.31h9.37V38.08a.49.49,0,0,1,0-.21.33.33,0,0,1,.14-.15,1.07,1.07,0,0,1,.27-.1,2.06,2.06,0,0,1,.43,0,2.09,2.09,0,0,1,.42,0,1,1,0,0,1,.28.1.33.33,0,0,1,.15.15.5.5,0,0,1,0,.21Zm1.95-28.93a1.09,1.09,0,0,1-.68.24q-.49,0-1.34,0t-1.38,0A3.23,3.23,0,0,1,82.1,33a.68.68,0,0,1-.36-.23,1.32,1.32,0,0,1-.17-.39L80,27.55H71.61l-1.42,4.67a1.54,1.54,0,0,1-.18.43.74.74,0,0,1-.36.28,2.52,2.52,0,0,1-.71.14q-.46,0-1.21,0A10.9,10.9,0,0,1,66.46,33a.92.92,0,0,1-.63-.27.75.75,0,0,1-.12-.6,6.35,6.35,0,0,1,.26-1l6.93-21.2a1.93,1.93,0,0,1,.24-.51.86.86,0,0,1,.44-.3A3.34,3.34,0,0,1,74.44,9Q75,9,75.86,9T77.5,9a4.15,4.15,0,0,1,.95.13.9.9,0,0,1,.49.3,1.86,1.86,0,0,1,.25.55l6.95,21.18a6.73,6.73,0,0,1,.26,1.05A.66.66,0,0,1,86.25,32.82ZM99.82,61.54a1.12,1.12,0,0,1-.09.32.54.54,0,0,1-.15.2.3.3,0,0,1-.19.07H90.6a.81.81,0,0,1-.54-.25,1.25,1.25,0,0,1-.28-.93v-22a1.25,1.25,0,0,1,.28-.93.81.81,0,0,1,.54-.25h8.66a.31.31,0,0,1,.19.07.49.49,0,0,1,.15.2,1.33,1.33,0,0,1,.09.33,3.16,3.16,0,0,1,0,.46,2.83,2.83,0,0,1,0,.43,1.16,1.16,0,0,1-.09.31.49.49,0,0,1-.15.19.31.31,0,0,1-.19.07h-7.7v8.59H98.2a.33.33,0,0,1,.2.07.5.5,0,0,1,.15.19,1.16,1.16,0,0,1,.09.32,3.3,3.3,0,0,1,0,.46,2.76,2.76,0,0,1,0,.42,1,1,0,0,1-.09.29.43.43,0,0,1-.15.17.37.37,0,0,1-.2.06H91.56v9.74h7.83a.31.31,0,0,1,.19.07.57.57,0,0,1,.15.19,1,1,0,0,1,.09.32,3.33,3.33,0,0,1,0,.46A3,3,0,0,1,99.82,61.54Zm1.76-29.65a3,3,0,0,1-.13.63.81.81,0,0,1-.22.36.45.45,0,0,1-.3.11H90.63a1.37,1.37,0,0,1-1-.36,1.53,1.53,0,0,1-.39-1.17V9.76a.54.54,0,0,1,.11-.33.79.79,0,0,1,.37-.24,3.43,3.43,0,0,1,.7-.15,11.06,11.06,0,0,1,2.21,0,3.43,3.43,0,0,1,.7.15.8.8,0,0,1,.37.24.54.54,0,0,1,.11.33V29h7.07a.48.48,0,0,1,.3.1.74.74,0,0,1,.22.33,2.64,2.64,0,0,1,.13.61,10.12,10.12,0,0,1,0,1.86Zm42,23.72a13.17,13.17,0,0,1-3.77,5,16.9,16.9,0,0,1-6.17,3.12,34.59,34.59,0,0,1-16.57.11,16.25,16.25,0,0,1-5.82-2.79,11.52,11.52,0,0,1-3.52-4.55,15.53,15.53,0,0,1-1.17-6.22,14.28,14.28,0,0,1,.69-4.49,13.33,13.33,0,0,1,2.05-3.9,18.33,18.33,0,0,1,3.39-3.38,33.89,33.89,0,0,1,4.67-3,27.27,27.27,0,0,1-3.85-2.62,16.65,16.65,0,0,1-2.93-3.08,12.6,12.6,0,0,1-1.84-3.66,14.35,14.35,0,0,1-.63-4.33,15.75,15.75,0,0,1,1.15-6.13A13,13,0,0,1,112.7,11a15.58,15.58,0,0,1,5.71-3.1,26.44,26.44,0,0,1,8-1.08,26,26,0,0,1,7.68,1,14.12,14.12,0,0,1,5.25,2.82,11.14,11.14,0,0,1,3,4.36,15.4,15.4,0,0,1,1,5.61,12.37,12.37,0,0,1-.65,4,15.14,15.14,0,0,1-1.82,3.66A17.79,17.79,0,0,1,138,31.46a23.17,23.17,0,0,1-3.89,2.8,33.56,33.56,0,0,1,4.56,2.95A18.69,18.69,0,0,1,142,40.56a14.15,14.15,0,0,1,2.11,3.84,13,13,0,0,1,.73,4.42A17.19,17.19,0,0,1,143.58,55.62Zm15.67,2.06a6.07,6.07,0,0,1-1.51,2.2,6.62,6.62,0,0,1-2.34,1.38,9.09,9.09,0,0,1-3,.48,9.81,9.81,0,0,1-2-.19,10.42,10.42,0,0,1-1.67-.48,7.35,7.35,0,0,1-1.27-.62,4.18,4.18,0,0,1-.76-.58,1.47,1.47,0,0,1-.35-.63,3.71,3.71,0,0,1-.11-1,3.38,3.38,0,0,1,0-.58,2.47,2.47,0,0,1,.11-.43.6.6,0,0,1,.18-.26.38.38,0,0,1,.24-.09,1.39,1.39,0,0,1,.71.35,12.39,12.39,0,0,0,1.16.77,9.83,9.83,0,0,0,1.65.77,7,7,0,0,0,4.06.1,4.16,4.16,0,0,0,1.45-.75,3.35,3.35,0,0,0,1-1.3,4.64,4.64,0,0,0,.34-1.85,3.4,3.4,0,0,0-.44-1.79,4.5,4.5,0,0,0-1.16-1.27,8.59,8.59,0,0,0-1.63-1l-1.87-.86q-1-.44-1.87-1a7.21,7.21,0,0,1-1.63-1.28A5.9,5.9,0,0,1,147.41,46,6.59,6.59,0,0,1,147,43.5a7.07,7.07,0,0,1,.4-2.33,5.87,5.87,0,0,1,1.22-2.05,6,6,0,0,1,2.11-1.46,7.7,7.7,0,0,1,3-.55,8,8,0,0,1,1.49.14,8.16,8.16,0,0,1,1.34.36,6.38,6.38,0,0,1,1,.49,4.88,4.88,0,0,1,.67.47,1.44,1.44,0,0,1,.31.34,1,1,0,0,1,.11.29,3.36,3.36,0,0,1,.06.36c0,.14,0,.31,0,.52a3.92,3.92,0,0,1,0,.54,1.92,1.92,0,0,1-.1.41.66.66,0,0,1-.16.26.34.34,0,0,1-.23.09,1,1,0,0,1-.53-.28,7.84,7.84,0,0,0-.92-.6,8.29,8.29,0,0,0-1.36-.6,5.54,5.54,0,0,0-1.83-.28,5.44,5.44,0,0,0-1.82.28,3.41,3.41,0,0,0-1.29.78,3.24,3.24,0,0,0-.76,1.18,4.23,4.23,0,0,0-.25,1.49,3.63,3.63,0,0,0,.44,1.86,4.44,4.44,0,0,0,1.17,1.31,8.79,8.79,0,0,0,1.65,1l1.88.86q1,.43,1.88.94a7.4,7.4,0,0,1,1.65,1.25,5.58,5.58,0,0,1,1.17,1.75,6.16,6.16,0,0,1,.44,2.45A7.7,7.7,0,0,1,159.26,57.68Z"
         id="path82"
         style="fill:#ffab71;fill-opacity:1" />
      <path
         class="cls-1"
         d="M23.79,42.47a5.74,5.74,0,0,0-1.91-2.21,5.15,5.15,0,0,0-2.94-.8A5,5,0,0,0,16,40.3a6.27,6.27,0,0,0-1.94,2.25A11.06,11.06,0,0,0,13,45.86a23.33,23.33,0,0,0-.33,4A27.06,27.06,0,0,0,13,54a11.22,11.22,0,0,0,1,3.33,5.68,5.68,0,0,0,1.9,2.22,5.2,5.2,0,0,0,3,.8,5,5,0,0,0,3-.86,6.28,6.28,0,0,0,1.94-2.3,11.46,11.46,0,0,0,1.06-3.34,24,24,0,0,0,.32-4,25.19,25.19,0,0,0-.31-4.07A11.25,11.25,0,0,0,23.79,42.47Z"
         id="path84"
         style="fill:#ffab71;fill-opacity:1" />
    </g>
  </g>
  <path
     style="fill:#ffab71;fill-opacity:1;stroke-width:0.159415"
     d="M 0,35.945 V -0.00298988 H 83.055 166.11 V 35.945 71.892989 H 83.055 0 Z m 130.64025,28.467728 c 3.55957,-0.591701 5.79562,-1.403456 8.11248,-2.945081 2.89968,-1.929429 4.81063,-4.723397 5.71172,-8.351002 0.47245,-1.902001 0.50938,-5.938128 0.0696,-7.60677 -0.66012,-2.504684 -2.41456,-5.315393 -4.53221,-7.260861 -1.16002,-1.065709 -3.43886,-2.707287 -4.77612,-3.440524 -0.45905,-0.2517 -0.83566,-0.495972 -0.83693,-0.542826 -0.001,-0.04686 0.20927,-0.210161 0.46784,-0.362904 0.25857,-0.152743 1.03695,-0.697987 1.72974,-1.211654 4.91626,-3.645184 7.30042,-8.515786 6.72559,-13.739713 -0.74972,-6.813321 -4.5434,-10.5065369 -12.19346,-11.8705484 -1.94237,-0.3463255 -6.99003,-0.3977474 -8.92722,-0.090944 -3.35725,0.5317056 -5.81576,1.3917683 -7.93506,2.7759256 -2.91312,1.9026128 -4.825,4.5305128 -5.70858,7.8464958 -0.48412,1.81687 -0.59216,5.093618 -0.23127,7.014242 0.77048,4.100406 3.38199,7.493254 7.93408,10.307846 l 0.91399,0.56513 -1.15312,0.683249 c -5.14294,3.047328 -7.92878,6.255079 -9.06942,10.442988 -0.28705,1.053936 -0.34864,1.718076 -0.35478,3.82595 -0.007,2.297721 0.0356,2.706426 0.42615,4.121803 1.56082,5.65595 5.85837,8.906133 13.09404,9.902842 2.67043,0.367849 2.83212,0.376537 5.83021,0.313242 1.77503,-0.03747 3.48558,-0.174561 4.70273,-0.376886 z M 21.881012,61.895415 c 2.574769,-1.21475 4.082399,-3.627632 4.849554,-7.761456 0.379946,-2.04734 0.374095,-7.10072 -0.01063,-9.179287 -0.682976,-3.689956 -2.180796,-5.984368 -4.652156,-7.126334 -1.326241,-0.61283 -3.693856,-0.71716 -5.287817,-0.233008 -3.420413,1.038917 -5.355478,4.233425 -5.952995,9.82752 -0.309754,2.899983 0.03336,7.162407 0.75712,9.405461 0.724731,2.24607 2.093804,4.110977 3.578038,4.873887 1.297878,0.667123 1.888869,0.782101 3.808208,0.740891 1.686819,-0.03622 1.919336,-0.07997 2.910676,-0.547674 z m 11.025062,0.335936 c 0.22638,-0.08687 0.252656,-1.182965 0.257008,-10.720631 0.0031,-6.739866 0.05986,-10.529724 0.155324,-10.366356 0.08276,0.141632 1.939744,4.382208 4.126627,9.423502 4.270149,9.843731 4.753523,10.888593 5.240874,11.328671 0.502178,0.453469 1.328858,0.518825 1.794446,0.141865 l 0.394853,-0.31969 0.04288,-11.830688 c 0.03232,-8.917757 -0.0035,-11.886559 -0.145451,-12.057606 -0.125337,-0.151021 -0.432939,-0.211022 -0.919655,-0.179389 l -0.731329,0.04753 -0.04513,10.441656 -0.04513,10.441655 -1.332916,-3.188292 c -1.95782,-4.683039 -7.095586,-16.51097 -7.386092,-17.003923 -0.317672,-0.539053 -0.82726,-0.770803 -1.694885,-0.770803 -0.494039,0 -0.769866,0.09359 -0.988839,0.335507 -0.292049,0.322655 -0.305327,0.788324 -0.346574,12.155281 -0.03991,10.997442 -0.02392,11.833643 0.229737,12.019123 0.29003,0.212074 0.977186,0.262634 1.394261,0.102587 z m 29.393147,-0.09453 c 0.145105,-0.145105 0.191297,-2.858035 0.191297,-11.235132 V 39.85785 l 2.908733,-0.04345 2.908733,-0.04345 0.143725,-0.68192 c 0.09681,-0.459309 0.0851,-0.810583 -0.03585,-1.076048 l -0.179576,-0.394129 h -6.666947 c -4.972851,0 -6.715557,0.04861 -6.858245,0.191297 -0.200136,0.200136 -0.261141,1.354181 -0.09454,1.788347 0.08338,0.21729 0.502231,0.25216 3.028877,0.25216 h 2.932114 v 11.145737 c 0,8.76743 0.04252,11.162894 0.199269,11.226143 0.387398,0.156319 1.333649,0.103039 1.522409,-0.08572 z m 10.619914,0.09453 c 0.223632,-0.08582 0.252161,-0.762144 0.252161,-5.978047 V 50.37202 h 4.70273 4.702731 v 5.881284 c 0,5.215903 0.02853,5.892231 0.25216,5.978047 0.353135,0.13551 1.064464,0.116259 1.303134,-0.03527 0.158486,-0.100618 0.191748,-2.66964 0.159415,-12.312337 L 84.25061,37.69856 h -0.876781 -0.87678 l -0.042,5.300535 -0.042,5.300535 H 77.79217 73.171296 v -5.323106 -5.323107 l -0.418997,-0.105162 c -0.230449,-0.05784 -0.625,-0.05992 -0.876781,-0.0046 l -0.457783,0.100553 v 12.248973 c 0,9.650018 0.04228,12.266032 0.199269,12.329379 0.28846,0.116396 1.009067,0.121275 1.302131,0.0088 z M 99.787924,61.86035 c 0.09076,-0.169591 0.165023,-0.497121 0.165023,-0.727845 0,-0.230724 -0.07426,-0.558254 -0.165023,-0.727846 -0.156389,-0.292215 -0.373266,-0.308349 -4.144779,-0.308349 h -3.979757 v -4.782438 -4.782438 h 3.315823 c 2.366421,0 3.370597,-0.05477 3.507121,-0.191297 0.248019,-0.248019 0.248019,-1.60119 0,-1.849209 -0.136524,-0.136524 -1.1407,-0.191298 -3.507121,-0.191298 h -3.315823 v -4.224486 -4.224487 h 3.968309 c 4.410913,0 4.161835,0.06688 4.161835,-1.117554 0,-1.144671 0.05034,-1.133898 -5.052892,-1.081309 -4.278849,0.04409 -4.550966,0.06444 -4.76414,0.356211 -0.190281,0.260437 -0.226087,2.151964 -0.226087,11.943541 0,10.601941 0.02341,11.659961 0.26383,11.925626 0.244161,0.269794 0.612139,0.291527 4.936242,0.291527 4.456326,0 4.680047,-0.01427 4.837439,-0.308349 z m 55.107226,-0.391173 c 2.70032,-0.722582 4.57434,-2.889428 4.81729,-5.569997 0.22665,-2.500963 -0.24536,-4.053898 -1.665,-5.477863 -0.67635,-0.678406 -1.35749,-1.087982 -3.7808,-2.273426 -2.55004,-1.247436 -3.05583,-1.557163 -3.68423,-2.256103 -0.84284,-0.937443 -1.12395,-1.771203 -1.00119,-2.969527 0.22247,-2.171599 1.94614,-3.39593 4.49312,-3.191482 1.00001,0.08027 2.14419,0.530171 3.63365,1.42878 0.59551,0.359281 0.60852,0.360143 0.83692,0.05551 0.14232,-0.189809 0.23202,-0.675585 0.23202,-1.256493 0,-0.875408 -0.0421,-0.986762 -0.55664,-1.472025 -1.12348,-1.059581 -3.80576,-1.685675 -5.78874,-1.351201 -2.29524,0.387141 -3.96897,1.593473 -4.87328,3.512383 -0.41473,0.880055 -0.49777,1.268086 -0.55109,2.575099 -0.0711,1.74364 0.18079,2.778824 0.95074,3.906773 0.76232,1.116761 1.7045,1.783972 4.40379,3.118569 3.77922,1.868541 4.65243,2.773624 4.6566,4.826579 0.003,1.379536 -0.54042,2.477805 -1.5387,3.110898 -1.05321,0.667926 -1.8193,0.840089 -3.39809,0.763645 -1.50528,-0.07288 -2.49696,-0.440807 -4.2356,-1.571455 -0.53218,-0.346079 -1.01128,-0.629235 -1.06467,-0.629235 -0.0534,0 -0.20979,0.112729 -0.34756,0.250509 -0.30781,0.307803 -0.33843,1.877993 -0.0478,2.452246 0.46203,0.913011 2.3334,1.871397 4.38163,2.243973 0.9592,0.17448 3.06077,0.05934 4.12765,-0.226154 z M 38.032879,32.93905 c 4.601696,-1.493808 7.081449,-5.800219 7.081449,-12.297851 0,-4.930768 -1.472968,-8.632168 -4.145311,-10.41669 -1.536728,-1.0261875 -3.17746,-1.4838 -5.660596,-1.5787835 -2.478348,-0.0948 -4.049596,0.1722402 -5.737015,0.9750315 -3.470054,1.650882 -5.282438,4.72398 -5.849653,9.918734 -0.218109,1.997535 -0.01057,4.808015 0.505166,6.840633 0.717495,2.82784 2.268581,4.874994 4.528166,5.976366 1.843184,0.898408 3.064041,1.122243 5.758173,1.05572 1.877139,-0.04635 2.436456,-0.121543 3.519621,-0.47316 z m 22.862975,0.05046 c 1.354929,-0.380286 2.521663,-0.967828 3.061092,-1.541496 0.321582,-0.341995 0.373537,-0.583229 0.421118,-1.955317 0.07612,-2.195137 -0.240868,-2.649933 -1.329594,-1.907609 -3.06351,2.088786 -6.323231,2.076321 -8.295057,-0.03172 -1.362557,-1.456682 -1.884453,-3.271882 -1.872763,-6.513627 0.01553,-4.304865 1.266421,-6.847779 3.847495,-7.821453 1.840773,-0.694406 4.356651,-0.176775 6.142976,1.263892 0.699729,0.564329 0.923343,0.607818 1.281864,0.249298 0.3645,-0.364499 0.356872,-3.266484 -0.01022,-3.887918 C 63.773404,10.218274 62.774693,9.6181501 61.294909,9.1322828 60.204807,8.7743619 59.741771,8.7135493 58.106617,8.7135493 c -1.634876,0 -2.098374,0.060853 -3.188291,0.4185898 -4.164649,1.3669389 -6.517757,4.8353579 -7.108558,10.4778299 -0.327111,3.124097 0.285325,6.865484 1.498803,9.156206 0.684682,1.2925 2.33554,2.947644 3.550112,3.559332 0.903189,0.454869 2.209494,0.86438 3.334959,1.04547 0.968576,0.155847 3.527418,-0.05174 4.702212,-0.38147 z m 9.013094,-0.169808 c 0.140535,-0.140712 0.592839,-1.360234 1.005122,-2.710048 l 0.749604,-2.45421 4.141371,-0.03836 4.141371,-0.03836 0.797073,2.507264 c 0.43839,1.378997 0.922612,2.633713 1.076048,2.788259 0.235569,0.237272 0.576627,0.280993 2.191951,0.280993 1.705242,0 1.947861,-0.03489 2.234232,-0.321257 C 86.480225,32.599478 86.539883,32.395 86.466645,32.076764 86.411462,31.836989 85.037522,27.58769 83.413444,22.633882 81.789366,17.680073 80.177516,12.73025 79.831556,11.634275 79.485594,10.5383 79.063036,9.4981196 78.892536,9.3227635 78.6081,9.0302269 78.372925,9.0039343 76.040758,9.0039343 c -2.333922,0 -2.566697,0.026073 -2.846511,0.3188292 -0.371141,0.3883056 -7.521769,22.2474885 -7.518016,22.9822705 0.0035,0.689108 0.483565,0.848242 2.428279,0.804969 1.175286,-0.02615 1.610558,-0.09618 1.804438,-0.290304 z M 22.653714,32.55744 c 0.0926,-0.241115 0.144627,-1.071912 0.115615,-1.846214 -0.04392,-1.172219 -0.104538,-1.445677 -0.362195,-1.634 -0.244787,-0.178917 -1.035868,-0.226175 -3.786096,-0.226175 h -3.476652 l -0.0022,-9.445315 c -0.0012,-5.194923 -0.0439,-9.6008476 -0.09489,-9.7909443 C 14.996332,9.4246953 14.747025,9.1831761 14.493307,9.0780827 13.876171,8.8224568 10.972822,8.9345294 10.619683,9.2276091 10.386707,9.4209619 10.361948,10.537406 10.361948,20.849712 v 11.408204 l 0.346618,0.368957 0.346617,0.368957 h 5.715082 5.715083 z m 78.862916,-0.07971 c 0.0759,-0.284953 0.11771,-1.091795 0.0928,-1.792982 -0.067,-1.88875 0.0598,-1.833699 -4.224807,-1.833699 H 93.895192 V 19.118626 9.3862021 l -0.55283,-0.2309876 c -1.024819,-0.4281964 -3.764887,-0.2380978 -4.096397,0.2841973 -0.198323,0.3124567 -0.16619,22.1715052 0.03338,22.7091132 0.317496,0.855276 0.257333,0.847305 6.395316,0.847305 h 5.703899 z"
     id="path917" />
  <path
     style="fill:#ffffff;fill-opacity:1;stroke-width:0.159415"
     d="m 122.51011,64.627118 c -0.26303,-0.03688 -1.15974,-0.145793 -1.99268,-0.242022 -6.09622,-0.704284 -10.69466,-3.502292 -12.57638,-7.652337 -0.95081,-2.096965 -1.20456,-3.445995 -1.19644,-6.360739 0.007,-2.397293 0.0459,-2.757458 0.44301,-4.065072 1.18695,-3.90868 3.96254,-7.042041 8.7258,-9.850532 0.77446,-0.456635 1.40982,-0.873251 1.41191,-0.925811 0.002,-0.05256 -0.66613,-0.53626 -1.48494,-1.074887 -4.39314,-2.889869 -6.7431,-6.087689 -7.44793,-10.135138 -0.27664,-1.588582 -0.11176,-5.107888 0.31428,-6.708258 1.51193,-5.679313 6.18231,-9.3036283 13.48454,-10.4642779 1.64374,-0.2612641 6.8021,-0.2616007 8.44897,-5.515e-4 5.68821,0.9016503 9.3339,3.1738324 11.16355,6.9577084 0.80535,1.665514 1.10914,2.755605 1.3592,4.877265 0.6356,5.392727 -2.11469,10.529296 -7.61523,14.22258 -0.80799,0.542516 -1.47156,1.028681 -1.47459,1.080365 -0.003,0.05168 0.19176,0.182641 0.43288,0.291013 1.07926,0.485083 4.21986,2.743872 5.42882,3.904519 1.70693,1.638721 2.61803,2.853698 3.47777,4.637713 0.90639,1.880815 1.18292,2.975182 1.28903,5.101267 0.22984,4.605274 -1.16381,8.593133 -3.97136,11.363853 -3.40188,3.357246 -7.97861,4.911924 -14.8725,5.05207 -1.57821,0.03208 -3.08468,0.02816 -3.34771,-0.0087 z m 6.13746,-8.383867 c 2.10057,-0.391627 3.88963,-1.749702 4.7486,-3.604663 0.59723,-1.289706 0.69916,-3.825282 0.21753,-5.41094 -0.76656,-2.523756 -2.62473,-4.353327 -6.82124,-6.716253 -0.80111,-0.451084 -1.56242,-0.820152 -1.6918,-0.820152 -0.12939,0 -1.09169,0.566666 -2.13845,1.259257 -4.13082,2.733161 -5.75963,5.376539 -5.6038,9.094299 0.0702,1.675089 0.47038,2.813121 1.40338,3.991136 1.62721,2.054517 5.75811,2.976873 9.88578,2.207316 z M 127.50762,29.62621 c 2.27528,-1.527815 4.1976,-3.72233 4.82053,-5.503112 0.89842,-2.568331 0.37028,-5.701826 -1.22763,-7.283615 -1.10957,-1.098377 -2.61815,-1.650098 -4.93582,-1.805144 -2.66594,-0.178343 -5.14708,0.728993 -6.29843,2.303297 -1.4123,1.931105 -1.63331,4.795932 -0.55215,7.157476 0.42854,0.936059 1.79991,2.470458 2.9864,3.341421 1.03707,0.761281 3.82436,2.449249 4.04437,2.449249 0.0993,0 0.62248,-0.296808 1.16273,-0.659572 z"
     id="path919" />
  <path
     style="fill:#ffffff;fill-opacity:1;stroke-width:0.159415"
     d="M 11.359692,32.883509 C 10.497593,32.717254 10.521363,33.06068 10.521363,20.771542 V 9.4152691 L 11.13297,9.232027 c 0.338489,-0.1014138 1.234078,-0.1576623 2.005536,-0.1259601 1.155036,0.047465 1.432705,0.1103147 1.620196,0.3667264 0.189494,0.2591507 0.226269,1.8720177 0.226269,9.9235577 v 9.614114 h 3.577789 c 3.51647,0 3.582042,0.0061 3.82595,0.354301 0.345679,0.493525 0.345679,2.783238 0,3.276763 l -0.248161,0.354301 -5.211788,-0.02171 c -2.866484,-0.01194 -5.372565,-0.05271 -5.569069,-0.09061 z"
     id="path921" />
  <path
     style="fill:#ffffff;fill-opacity:1;stroke-width:0.159415"
     d="m 31.324967,33.088016 c -3.174318,-0.731909 -5.018198,-2.171852 -6.306534,-4.924961 -0.979804,-2.093792 -1.459517,-5.904691 -1.11563,-8.862699 0.379221,-3.261946 1.401477,-5.81354 3.020193,-7.538527 1.093548,-1.165342 2.227982,-1.8931332 3.870335,-2.4829968 1.087105,-0.3904423 1.35978,-0.4202592 3.879342,-0.4242045 2.553609,-0.004 2.782082,0.021069 3.957918,0.4342527 2.254424,0.7921946 3.802327,2.0831706 4.846325,4.0419096 1.043842,1.958449 1.583937,5.071403 1.43194,8.253289 -0.15853,3.31862 -0.798441,5.618893 -2.113348,7.596796 -1.211412,1.822225 -2.554997,2.829838 -4.792641,3.594215 -1.083051,0.369971 -1.56788,0.436877 -3.489609,0.481566 -1.506264,0.03503 -2.542749,-0.0198 -3.188291,-0.16864 z m 5.024362,-3.869462 c 1.688734,-0.545401 3.105608,-2.341718 3.684874,-4.671697 0.278596,-1.120594 0.287755,-5.956312 0.01353,-7.145354 -0.495517,-2.1486 -1.824027,-3.883459 -3.391686,-4.429099 -0.602422,-0.209679 -1.305852,-0.301934 -2.302207,-0.301934 -1.245044,0 -1.553634,0.05839 -2.33407,0.441653 -1.6807,0.825369 -2.971295,2.731444 -3.316912,4.898736 -0.231489,1.451615 -0.198173,4.947472 0.061,6.40063 0.445563,2.498233 1.664902,4.227711 3.384716,4.800789 1.042603,0.347417 3.134789,0.350543 4.200751,0.0063 z"
     id="path923" />
  <path
     style="fill:#ffffff;fill-opacity:1;stroke-width:0.159415"
     d="m 56.353057,33.214891 c -0.175356,-0.03453 -0.71338,-0.140425 -1.19561,-0.235318 -2.096711,-0.412591 -4.132022,-1.830252 -5.340993,-3.720177 -2.359173,-3.687983 -2.610464,-10.264809 -0.560746,-14.675951 1.778819,-3.828146 4.71225,-5.7258466 8.850909,-5.7258466 1.928316,0 2.993859,0.2409525 4.558639,1.0308512 1.410759,0.7121484 1.578823,1.0158234 1.578823,2.8527574 0,1.059475 -0.06885,1.63633 -0.219954,1.842982 -0.210542,0.287934 -0.263404,0.272528 -1.235463,-0.360052 -1.858237,-1.209273 -2.416063,-1.394267 -4.203801,-1.39413 -1.422375,1.1e-4 -1.680031,0.04601 -2.391219,0.425984 -2.417368,1.291554 -3.515004,3.822435 -3.479495,8.022867 0.02452,2.900021 0.581425,4.90763 1.744953,6.290405 1.800124,2.139326 5.570705,2.292516 8.406365,0.34153 0.802415,-0.552075 1.138598,-0.615626 1.281851,-0.242313 0.169933,0.442836 0.103696,2.905914 -0.08955,3.330044 -0.620804,1.362515 -5.261517,2.697482 -7.704708,2.216367 z"
     id="path925" />
  <path
     style="fill:#ffffff;fill-opacity:1;stroke-width:0.159415"
     d="m 66.196908,32.838724 c -0.665501,-0.280999 -0.956622,0.763933 3.96647,-14.236991 2.760613,-8.411734 3.058503,-9.2263859 3.424682,-9.3656068 0.513508,-0.1952354 4.380906,-0.1994114 4.891505,-0.00528 0.212945,0.080961 0.4375,0.2782371 0.49901,0.4383901 0.248662,0.6474287 7.232136,22.0025347 7.324659,22.3984307 0.183181,0.783812 -0.17117,0.928165 -2.278425,0.928165 -1.586514,0 -1.915348,-0.04316 -2.125513,-0.278976 -0.136748,-0.153436 -0.601282,-1.390892 -1.032299,-2.749901 L 80.08333,27.496027 h -4.270999 -4.271 l -0.771282,2.534781 c -0.424205,1.39413 -0.850006,2.613651 -0.946223,2.710048 -0.221547,0.221961 -3.146125,0.300877 -3.626918,0.09787 z m 12.80946,-9.208501 c -0.25969,-0.85481 -2.701839,-8.689307 -2.910218,-9.336081 -0.136009,-0.422151 -0.279371,-0.735465 -0.318582,-0.696254 -0.06477,0.06477 -3.24393,10.11155 -3.24393,10.251457 0,0.03292 1.475433,0.05985 3.278741,0.05985 3.048621,0 3.272793,-0.01958 3.193989,-0.278975 z"
     id="path927" />
  <path
     style="fill:#ffffff;fill-opacity:1;stroke-width:0.159415"
     d="m 89.72822,32.531717 -0.376343,-0.304698 -0.04296,-11.31047 c -0.03954,-10.411381 -0.02175,-11.3280681 0.22377,-11.5318358 0.373384,-0.3098811 3.566671,-0.3119696 3.939467,-0.00258 0.239938,0.199131 0.263623,1.0907018 0.263623,9.9235588 v 9.70477 h 3.575441 c 4.051132,0 3.979182,-0.02136 4.148022,1.231322 0.0982,0.728629 -0.003,2.195435 -0.17027,2.465954 -0.0437,0.07077 -2.578123,0.128674 -5.631966,0.128674 -5.229062,0 -5.57436,-0.01775 -5.928785,-0.304698 z"
     id="path929" />
  <path
     style="fill:#ffffff;fill-opacity:1;stroke-width:0.159415"
     d="m 150.70205,61.515935 c -1.77442,-0.296451 -3.91596,-1.389789 -4.20348,-2.146039 -0.2493,-0.655698 -0.19417,-2.07231 0.0898,-2.307995 0.20386,-0.169193 0.3255,-0.145053 0.71312,0.141527 1.75182,1.295179 3.45539,1.936394 5.14459,1.936394 3.03205,0 4.73669,-1.494835 4.73669,-4.153708 0,-1.982194 -0.94858,-3.033085 -4.10977,-4.553 -3.49464,-1.680246 -4.66877,-2.588492 -5.43712,-4.205873 -0.37411,-0.787505 -0.41652,-1.063447 -0.41652,-2.710048 0,-1.746856 0.0246,-1.88347 0.52099,-2.898314 0.90026,-1.840378 2.50599,-2.960745 4.77955,-3.334829 1.96238,-0.322886 4.51176,0.31222 5.65921,1.409836 0.3763,0.359947 0.43805,0.544965 0.43595,1.306157 -0.001,0.487745 -0.0706,0.994414 -0.15386,1.125931 -0.13266,0.20949 -0.20644,0.203388 -0.59537,-0.04924 -2.92187,-1.89789 -5.85977,-2.036453 -7.47772,-0.352677 -1.52952,1.591753 -1.26831,4.360108 0.54707,5.797912 0.3363,0.266354 1.79567,1.056387 3.24304,1.75563 3.84144,1.855843 4.99846,3.034759 5.3912,5.493222 0.21697,1.358164 -0.0222,3.09072 -0.58675,4.251061 -1.30443,2.680881 -4.66367,4.098329 -8.28063,3.494049 z"
     id="path931" />
  <path
     style="fill:#ffffff;fill-opacity:1;stroke-width:0.159415"
     d="M 90.074851,61.700936 C 89.965448,61.496515 89.909828,57.496642 89.909828,49.833588 V 38.27459 l 0.354299,-0.248161 c 0.299492,-0.209773 1.022043,-0.248162 4.670848,-0.248162 3.144762,0 4.368478,0.05193 4.507845,0.191298 0.105214,0.105214 0.191297,0.422161 0.191297,0.704327 0,1.06849 0.209204,1.017351 -4.161834,1.017351 h -3.96831 v 4.380792 4.380792 l 3.467268,0.04296 3.467267,0.04296 v 0.87678 0.876781 l -3.467267,0.04296 -3.467268,0.04296 v 4.938743 4.938743 h 4.048017 c 4.388014,0 4.241542,-0.03028 4.241542,0.876781 0,0.913976 0.206748,0.87678 -4.873592,0.87678 -4.46389,0 -4.687688,-0.01424 -4.845089,-0.308349 z"
     id="path933" />
  <path
     style="fill:#ffffff;fill-opacity:1;stroke-width:0.159415"
     d="M 71.691013,62.070011 C 71.628388,62.007385 71.57715,56.520958 71.57715,49.87795 V 37.799753 l 0.330334,-0.104844 c 0.181684,-0.05767 0.503533,-0.06137 0.71522,-0.0082 l 0.384886,0.0966 0.042,5.298036 0.042,5.298037 4.742584,0.04223 4.742584,0.04223 V 43.121081 37.77832 h 0.798068 0.798069 l -0.04085,12.155363 -0.04085,12.155362 h -0.637658 -0.637659 l -0.04182,-5.858486 -0.04182,-5.858486 H 77.874026 73.01581 l -0.04182,5.858486 -0.04182,5.858486 -0.563649,0.04744 c -0.310007,0.02609 -0.614887,-0.0038 -0.677512,-0.06642 z"
     id="path935" />
  <path
     style="fill:#ffffff;fill-opacity:1;stroke-width:0.159415"
     d="m 60.843234,62.062422 c -0.05845,-0.05845 -0.106276,-5.114295 -0.106276,-11.23521 V 39.698278 l -2.989024,-0.04337 -2.989023,-0.04337 v -0.87678 -0.87678 l 6.597219,-0.04164 c 4.737674,-0.0299 6.658597,0.0093 6.814974,0.139081 0.25743,0.213648 0.286157,0.991317 0.05273,1.427477 -0.153753,0.287289 -0.360623,0.30835 -3.028877,0.30835 h -2.863854 v 11.141965 c 0,10.012958 -0.02555,11.151771 -0.25216,11.238728 -0.336637,0.12918 -1.102916,0.12328 -1.23571,-0.0095 z"
     id="path937" />
  <path
     style="fill:#ffffff;fill-opacity:1;stroke-width:0.159415"
     d="m 31.595971,61.977402 c -0.244612,-0.244612 -0.277784,-22.544654 -0.03479,-23.391906 0.191377,-0.667292 0.38656,-0.801647 1.169148,-0.804787 0.855844,-0.0034 1.166695,0.21196 1.63251,1.131202 0.47623,0.939795 5.614877,12.788619 7.355245,16.959912 0.658467,1.578205 1.243642,2.941199 1.30039,3.028877 0.05675,0.08768 0.139045,-4.611067 0.182884,-10.441655 l 0.07971,-10.60107 h 0.717365 0.717366 l 0.04544,11.47785 c 0.02499,6.312818 0.0032,11.714296 -0.04845,12.003284 -0.206237,1.154117 -1.59696,1.075862 -2.341794,-0.131772 C 42.1293,60.815467 40.093106,56.262389 37.846118,51.089386 35.59913,45.916382 33.607202,41.36111 33.419612,40.966559 l -0.341074,-0.717365 -0.04098,10.831478 c -0.03186,8.422207 -0.08505,10.859468 -0.239121,10.957312 -0.299228,0.190027 -0.986472,0.155402 -1.202457,-0.06058 z"
     id="path939" />
  <path
     style="fill:#ffffff;fill-opacity:1;stroke-width:0.159415"
     d="m 16.465301,62.104967 c -2.761324,-0.896375 -4.534323,-3.440883 -5.231859,-7.508461 -0.35678,-2.080512 -0.465764,-5.291893 -0.247554,-7.294575 0.522109,-4.791797 2.133145,-7.785137 4.935405,-9.170089 1.191377,-0.58881 1.212359,-0.592696 3.20019,-0.592696 1.929813,0 2.038206,0.01823 3.048887,0.512824 2.144358,1.049375 3.655493,3.35166 4.32014,6.581936 0.457527,2.223634 0.503927,7.267997 0.08753,9.515439 -0.303756,1.639471 -1.013358,3.714102 -1.630631,4.767399 -0.633347,1.080726 -1.876066,2.21855 -3.059494,2.801251 -1.009566,0.497094 -1.192611,0.532755 -2.91404,0.567726 -1.215611,0.02469 -2.063994,-0.03643 -2.508574,-0.180754 z m 4.819704,-2.203628 c 1.626503,-0.835107 2.890633,-2.675166 3.480166,-5.065711 0.454213,-1.841823 0.634175,-4.753671 0.433831,-7.019552 -0.213598,-2.415778 -0.472564,-3.504523 -1.200973,-5.049128 -0.630288,-1.336538 -1.58811,-2.364051 -2.716182,-2.91381 -1.108667,-0.540303 -3.449692,-0.565086 -4.580707,-0.04849 -2.836679,1.295656 -4.304342,5.328584 -4.048729,11.125327 0.294691,6.682956 2.302762,9.608799 6.47734,9.437755 1.069769,-0.04383 1.523485,-0.142013 2.155254,-0.466387 z"
     id="path941" />
</svg>
